<svg width="549" height="90" viewBox="0 0 549 90" fill="none" xmlns="http://www.w3.org/2000/svg">
<path d="M168.28 71.6402C168.28 71.0002 168.28 70.2002 167.56 70.2002H163.32C162.84 70.2002 162.6 69.9602 162.6 69.1602V20.0402C162.6 19.2402 162.84 19.0002 163.32 19.0002H167.56C168.28 19.0002 168.28 18.2802 168.28 17.6402C168.28 17.0002 168.28 16.2002 167.56 16.2002H111.8C111.08 16.2002 111.08 17.0002 111.08 17.6402C111.08 18.2802 111.08 19.0002 111.8 19.0002H116.04C116.52 19.0002 116.76 19.2402 116.76 20.0402V69.1602C116.76 69.9602 116.52 70.2002 116.04 70.2002H111.8C111.08 70.2002 111.08 71.0002 111.08 71.6402C111.08 72.2802 111.08 73.0002 111.8 73.0002H130.84C131.56 73.0002 131.56 72.2802 131.56 71.6402C131.56 71.0002 131.56 70.2002 130.84 70.2002H126.6C126.12 70.2002 125.88 69.9602 125.88 69.1602V19.8002H153.48V69.1602C153.48 69.9602 153.24 70.2002 152.76 70.2002H148.52C147.8 70.2002 147.8 71.0002 147.8 71.6402C147.8 72.2802 147.8 73.0002 148.52 73.0002H167.56C168.28 73.0002 168.28 72.2802 168.28 71.6402Z" fill="#323232"/>
<path d="M201.688 33.9602C201.688 38.4402 199.768 48.2002 190.488 48.2002H187.208V19.7202H190.488C199.768 19.7202 201.688 29.4802 201.688 33.9602ZM211.768 33.9602C211.768 21.2402 202.888 16.2002 191.288 16.2002H173.128C172.408 16.2002 172.408 17.0002 172.408 17.6402C172.408 18.2802 172.408 19.0002 173.128 19.0002H177.368C177.848 19.0002 178.088 19.2402 178.088 20.0402V69.1602C178.088 69.9602 177.848 70.2002 177.368 70.2002H173.128C172.408 70.2002 172.408 71.0002 172.408 71.6402C172.408 72.2802 172.408 73.0002 173.128 73.0002H192.168C192.888 73.0002 192.888 72.2802 192.888 71.6402C192.888 71.0002 192.888 70.2002 192.168 70.2002H187.928C187.448 70.2002 187.208 69.9602 187.208 69.1602V51.7202H191.288C202.888 51.7202 211.768 46.6802 211.768 33.9602Z" fill="#323232"/>
<path d="M266.543 44.5202C266.543 58.5202 259.263 69.8002 247.183 69.8002C235.023 69.8002 227.983 58.5202 227.983 44.5202C227.983 30.5202 235.023 19.1602 247.183 19.1602C259.263 19.1602 266.543 30.5202 266.543 44.5202ZM276.623 44.6002C276.623 28.4402 263.583 15.2402 247.183 15.2402C230.943 15.2402 217.903 28.4402 217.903 44.6002C217.903 60.9202 230.943 73.9602 247.183 73.9602C263.583 73.9602 276.623 60.9202 276.623 44.6002Z" fill="#323232"/>
<path d="M370.512 68.3602C370.512 67.4802 369.872 67.1602 369.152 67.1602C368.352 67.1602 365.872 68.5202 364.272 68.5202C356.992 68.5202 353.312 62.7602 349.872 55.8802C346.272 48.6802 341.712 39.1602 330.112 37.2402C331.472 29.0002 337.232 19.3202 343.232 19.3202C342.992 20.0402 342.832 20.6802 342.832 21.2402C342.832 24.0402 344.672 25.3202 347.392 25.3202C350.592 25.3202 352.032 22.6802 352.032 20.6802C352.032 15.6402 347.472 15.2402 345.232 15.2402C333.712 15.2402 328.032 27.4002 325.872 36.6802H325.552V20.0402C325.552 19.4802 325.712 19.0002 326.432 19.0002H330.512C331.232 19.0002 331.232 18.2802 331.232 17.6402C331.232 17.0002 331.232 16.2002 330.512 16.2002H311.472C310.752 16.2002 310.752 17.0002 310.752 17.6402C310.752 18.2802 310.752 19.0002 311.472 19.0002H315.712C316.192 19.0002 316.432 19.2402 316.432 20.0402V36.6802H316.112C313.952 27.4002 308.272 15.2402 296.752 15.2402C294.512 15.2402 289.952 15.6402 289.952 20.6802C289.952 22.6802 291.392 25.3202 294.592 25.3202C297.312 25.3202 299.152 24.0402 299.152 21.2402C299.152 20.6802 298.992 20.0402 298.752 19.3202C304.752 19.3202 310.512 29.0002 311.872 37.2402C300.272 39.1602 295.712 48.6802 292.112 55.8802C288.672 62.7602 284.992 68.5202 277.712 68.5202C276.112 68.5202 273.632 67.1602 272.832 67.1602C272.112 67.1602 271.472 67.4802 271.472 68.3602C271.472 71.0002 277.552 74.0402 282.032 74.0402C292.992 74.0402 296.112 69.7202 301.072 60.2802C305.552 51.7202 308.912 42.6802 316.432 42.6802V69.1602C316.432 69.9602 316.192 70.2002 315.712 70.2002H311.472C310.752 70.2002 310.752 71.0002 310.752 71.6402C310.752 72.2802 310.752 73.0002 311.472 73.0002H330.512C331.232 73.0002 331.232 72.2802 331.232 71.6402C331.232 71.0002 331.232 70.2002 330.512 70.2002H326.272C325.792 70.2002 325.552 69.9602 325.552 69.1602V42.6802C333.072 42.6802 336.432 51.7202 340.912 60.2802C345.872 69.7202 348.992 74.0402 359.952 74.0402C364.432 74.0402 370.512 71.0002 370.512 68.3602Z" fill="#323232"/>
<path d="M431.793 71.6402C431.793 71.0002 431.793 70.2002 431.073 70.2002H426.833C426.353 70.2002 426.113 69.9602 426.113 69.1602V20.0402C426.113 19.2402 426.353 19.0002 426.833 19.0002H431.073C431.793 19.0002 431.793 18.2802 431.793 17.6402C431.793 17.0002 431.793 16.2002 431.073 16.2002H412.033C411.313 16.2002 411.313 17.0002 411.313 17.6402C411.313 18.2802 411.313 19.0002 412.033 19.0002H416.273C416.753 19.0002 416.993 19.2402 416.993 20.0402V21.6402L386.193 60.8402V20.0402C386.193 19.2402 386.433 19.0002 386.913 19.0002H391.073C391.793 19.0002 391.793 18.2802 391.793 17.6402C391.793 17.0002 391.793 16.2002 391.073 16.2002H372.113C371.393 16.2002 371.393 17.0002 371.393 17.6402C371.393 18.2802 371.393 19.0002 372.113 19.0002H376.353C376.833 19.0002 377.073 19.2402 377.073 20.0402V69.1602C377.073 69.9602 376.833 70.2002 376.353 70.2002H372.113C371.393 70.2002 371.393 71.0002 371.393 71.6402C371.393 72.2802 371.393 73.0002 372.113 73.0002H391.153C391.873 73.0002 391.873 72.2802 391.873 71.6402C391.873 71.0002 391.873 70.2002 391.153 70.2002H386.913C386.433 70.2002 386.193 69.9602 386.193 69.1602V67.7202L416.993 28.5202V69.1602C416.993 69.9602 416.753 70.2002 416.273 70.2002H412.033C411.313 70.2002 411.313 71.0002 411.313 71.6402C411.313 72.2802 411.313 73.0002 412.033 73.0002H431.073C431.793 73.0002 431.793 72.2802 431.793 71.6402Z" fill="#323232"/>
<path d="M434.484 24.3602C434.404 24.5202 434.244 24.9202 434.244 25.2402C434.244 25.9602 434.964 26.0402 436.004 26.0402C437.044 26.0402 437.524 25.7202 437.764 25.4802L441.524 21.8802C442.884 20.5202 444.724 19.7202 447.204 19.7202H456.404V69.1602C456.404 69.8802 456.164 70.1202 455.684 70.1202H451.444C450.724 70.1202 450.724 70.8402 450.724 71.4802C450.724 72.1202 450.724 72.9202 451.444 73.0002H470.484C471.204 72.9202 471.204 72.1202 471.204 71.4802C471.204 70.8402 471.204 70.1202 470.484 70.1202H466.244C465.764 70.1202 465.524 69.8802 465.524 69.1602V19.7202H474.724C477.204 19.7202 479.044 20.5202 480.404 21.8802L484.164 25.4802C484.404 25.7202 484.884 26.0402 485.924 26.0402C486.964 26.0402 487.684 25.9602 487.684 25.2402C487.684 24.9202 487.524 24.5202 487.444 24.3602L483.364 16.2002H438.564L434.484 24.3602Z" fill="#323232"/>
<path d="M538.34 44.5202C538.34 58.5202 531.06 69.8002 518.98 69.8002C506.82 69.8002 499.78 58.5202 499.78 44.5202C499.78 30.5202 506.82 19.1602 518.98 19.1602C531.06 19.1602 538.34 30.5202 538.34 44.5202ZM548.42 44.6002C548.42 28.4402 535.38 15.2402 518.98 15.2402C502.74 15.2402 489.7 28.4402 489.7 44.6002C489.7 60.9202 502.74 73.9602 518.98 73.9602C535.38 73.9602 548.42 60.9202 548.42 44.6002Z" fill="#323232"/>
<circle cx="45" cy="45" r="45" fill="#E96A41"/>
<path d="M30.4269 25H48.4386L35.0117 65H17L30.4269 25Z" fill="white"/>
<path d="M54.9874 25H72.9991L59.5722 65H41.5605L54.9874 25Z" fill="white"/>
</svg>
