<svg width="329" height="95" viewBox="0 0 329 95" fill="none" xmlns="http://www.w3.org/2000/svg">
<g clip-path="url(#clip0_79_2654)">
<path fill-rule="evenodd" clip-rule="evenodd" d="M116.616 9.9675H110.266V13.8077H116.44V16.185H110.266V21.6711H116.616V24.0483H107.885V7.49878H116.616V9.9675Z" fill="#323232"/>
<path fill-rule="evenodd" clip-rule="evenodd" d="M123.145 21.6711H124.644C127.29 21.6711 127.819 20.2995 127.819 19.2023C127.819 18.0137 127.29 16.7336 124.732 16.7336H123.145V21.6711ZM123.145 14.6306H123.938C124.467 14.6306 126.496 14.6306 126.496 12.1619C126.496 10.1504 124.908 9.9675 123.938 9.9675H123.145V14.6306ZM123.145 7.49878C125.173 7.49878 126.055 7.77308 126.937 8.41312C127.643 8.87029 128.789 9.9675 128.789 12.1619C128.789 12.9848 128.613 14.1735 127.466 15.1792C129.23 15.7278 130.2 17.2822 130.2 19.0195C130.2 19.7509 130.112 21.5796 128.613 22.8597C127.29 23.9569 125.967 24.0483 124.379 24.0483H120.763V7.49878H123.145Z" fill="#323232"/>
<path fill-rule="evenodd" clip-rule="evenodd" d="M135.671 14.9964H136.817C138.846 14.9964 139.904 13.9906 139.904 12.4362C139.904 11.5219 139.551 9.87607 136.729 9.87607H135.671V14.9964ZM136.729 7.49878C137.787 7.49878 139.11 7.68165 140.257 8.41312C141.58 9.32746 142.197 10.9733 142.197 12.4362C142.197 13.3506 142.021 14.9049 140.698 16.0021C139.375 17.1908 137.964 17.2822 136.817 17.2822H135.671V24.0483H133.289V7.49878H136.729Z" fill="#323232"/>
<path fill-rule="evenodd" clip-rule="evenodd" d="M158.513 15.8178C158.513 12.1605 156.132 9.50887 152.692 9.50887C149.253 9.50887 146.871 12.1605 146.871 15.8178C146.871 19.4752 149.253 22.0353 152.692 22.0353C156.132 22.0353 158.513 19.4752 158.513 15.8178ZM160.983 15.8178C160.983 20.6638 157.455 24.3212 152.692 24.3212C147.93 24.3212 144.402 20.6638 144.402 15.8178C144.402 10.9718 147.93 7.22302 152.692 7.22302C157.455 7.22302 160.983 10.9718 160.983 15.8178Z" fill="#323232"/>
<path fill-rule="evenodd" clip-rule="evenodd" d="M175.714 7.49878V24.0483H173.245V9.9675H166.454V24.0483H163.984V7.49878H175.714Z" fill="#323232"/>
<path fill-rule="evenodd" clip-rule="evenodd" d="M189.208 9.9675H182.858V13.8077H189.032V16.185H182.858V21.6711H189.208V24.0483H180.476V7.49878H189.208V9.9675Z" fill="#323232"/>
<path fill-rule="evenodd" clip-rule="evenodd" d="M204.027 12.8919L193.355 24.7784V7.49734H195.736V18.6523L206.496 6.8573V24.0469H204.027V12.8919Z" fill="#323232"/>
<path fill-rule="evenodd" clip-rule="evenodd" d="M222.99 11.3376C221.226 9.69174 219.638 9.50887 218.756 9.50887C215.229 9.50887 212.936 12.1605 212.936 15.8178C212.936 19.2923 215.405 22.0353 218.756 22.0353C220.697 22.0353 222.108 21.0296 222.99 20.1152V23.1325C221.491 24.1383 219.727 24.3212 218.668 24.3212C215.758 24.3212 213.994 22.9497 213.024 22.1268C211.172 20.2981 210.554 18.1951 210.554 15.8178C210.554 12.8005 211.701 10.6975 213.024 9.41744C214.699 7.77163 216.552 7.22302 218.756 7.22302C220.256 7.22302 221.667 7.49732 222.99 8.41167V11.3376Z" fill="#323232"/>
<path fill-rule="evenodd" clip-rule="evenodd" d="M229.431 14.082L235.605 7.49878H238.78L231.636 14.9964L238.868 24.0483H235.605L229.872 16.7336L229.431 17.1908V24.0483H226.962V7.49878H229.431V14.082Z" fill="#323232"/>
<path fill-rule="evenodd" clip-rule="evenodd" d="M252.627 12.8919L241.956 24.7784V7.49734H244.337V18.6523L255.097 6.8573V24.0469H252.627V12.8919Z" fill="#323232"/>
<path fill-rule="evenodd" clip-rule="evenodd" d="M270.092 12.8919L259.42 24.7784V7.49734H261.801V18.6523L272.473 6.8573V24.0469H270.092V12.8919Z" fill="#323232"/>
<path fill-rule="evenodd" clip-rule="evenodd" d="M109.032 41.968L113.177 50.4714L116.881 41.968H119.351L112.207 58.4261H109.649L111.854 53.4887L106.122 41.968H109.032Z" fill="#323232"/>
<path fill-rule="evenodd" clip-rule="evenodd" d="M123.85 48.3684H130.729V41.968H133.11V58.4261H130.729V50.7457H123.85V58.4261H121.38V41.968H123.85V48.3684Z" fill="#323232"/>
<path fill-rule="evenodd" clip-rule="evenodd" d="M148.635 47.2711L137.875 59.1575V41.9679H140.345V53.1229L151.016 41.2365V58.4261H148.635V47.2711Z" fill="#323232"/>
<path fill-rule="evenodd" clip-rule="evenodd" d="M157.721 56.0489H159.22C161.954 56.0489 162.395 54.5859 162.395 53.5801C162.395 52.3915 161.866 51.1114 159.308 51.1114H157.721V56.0489ZM157.721 49.0084H158.514C159.132 49.0084 161.072 49.0084 161.072 46.6312C161.072 44.5282 159.573 44.2539 158.603 44.2539H157.721V49.0084ZM157.721 41.968C159.749 41.968 160.719 42.1509 161.601 42.7909C162.307 43.3395 163.365 44.3453 163.365 46.5397C163.365 47.3626 163.189 48.6427 162.042 49.557C163.894 50.1056 164.776 51.66 164.776 53.3058C164.776 54.1287 164.776 55.9574 163.189 57.2375C161.866 58.3347 160.631 58.4261 158.955 58.4261H155.339V41.968H157.721Z" fill="#323232"/>
<path fill-rule="evenodd" clip-rule="evenodd" d="M177.125 44.2539H170.775V48.1855H176.948V50.5628H170.775V56.0489H177.125V58.4261H168.305V41.968H177.125V44.2539Z" fill="#323232"/>
<path fill-rule="evenodd" clip-rule="evenodd" d="M183.653 49.3742H184.711C186.828 49.3742 187.798 48.277 187.798 46.814C187.798 45.8997 187.445 44.2539 184.711 44.2539H183.653V49.3742ZM184.711 41.968C185.681 41.968 187.093 41.968 188.239 42.7909C189.562 43.7053 190.179 45.3511 190.179 46.814C190.179 47.8198 189.915 49.2827 188.592 50.4714C187.357 51.5686 185.946 51.66 184.711 51.66H183.653V58.4261H181.183V41.968H184.711Z" fill="#323232"/>
<path fill-rule="evenodd" clip-rule="evenodd" d="M204.91 45.8083C203.146 44.1624 201.558 43.9796 200.588 43.9796C197.148 43.9796 194.855 46.6312 194.855 50.1971C194.855 53.6716 197.237 56.4146 200.588 56.4146C202.528 56.4146 204.028 55.4088 204.91 54.4945V57.5118C203.322 58.5176 201.646 58.7005 200.588 58.7005C197.678 58.7005 195.825 57.329 194.943 56.4146C193.091 54.6774 192.386 52.5744 192.386 50.1971C192.386 47.1798 193.62 45.0768 194.943 43.7967C196.619 42.1509 198.471 41.6023 200.676 41.6023C202.087 41.6023 203.498 41.8766 204.91 42.7909V45.8083Z" fill="#323232"/>
<path fill-rule="evenodd" clip-rule="evenodd" d="M218.669 47.2711L207.909 59.1575V41.9679H210.379V53.1229L221.05 41.2365V58.4261H218.669V47.2711Z" fill="#323232"/>
<path fill-rule="evenodd" clip-rule="evenodd" d="M230.224 44.2539V58.4261H227.843V44.2539H224.227V41.968H233.928V44.2539H230.224Z" fill="#323232"/>
<path fill-rule="evenodd" clip-rule="evenodd" d="M245.747 44.2539H239.485V48.1855H245.57V50.5628H239.485V56.0489H245.747V58.4261H237.015V41.968H245.747V44.2539Z" fill="#323232"/>
<path fill-rule="evenodd" clip-rule="evenodd" d="M254.303 44.2539V58.4261H251.834V44.2539H248.218V41.968H257.919V44.2539H254.303Z" fill="#323232"/>
<path fill-rule="evenodd" clip-rule="evenodd" d="M110.266 90.428H111.766C114.411 90.428 114.941 88.9651 114.941 87.9593C114.941 86.7707 114.323 85.4906 111.854 85.4906H110.266V90.428ZM110.266 83.3876H111.06C111.589 83.3876 113.618 83.3876 113.618 81.0103C113.618 78.9073 112.03 78.633 111.148 78.633H110.266V83.3876ZM110.266 76.3472C112.295 76.3472 113.177 76.53 114.059 77.1701C114.764 77.7187 115.911 78.7245 115.911 80.9189C115.911 81.7418 115.734 82.9304 114.588 83.9362C116.352 84.4848 117.322 86.0392 117.322 87.685C117.322 88.5079 117.234 90.3366 115.734 91.6167C114.411 92.7139 113.088 92.8053 111.501 92.8053H107.885V76.3472H110.266Z" fill="#323232"/>
<path fill-rule="evenodd" clip-rule="evenodd" d="M136.287 80.1874C134.523 78.5416 132.847 78.3587 131.965 78.3587C128.526 78.3587 126.144 81.0103 126.144 84.5762C126.144 88.1422 128.614 90.7938 131.965 90.7938C133.906 90.7938 135.405 89.788 136.287 88.8736V91.891C134.699 92.8053 133.024 93.0796 131.965 93.0796C129.055 93.0796 127.203 91.7995 126.321 90.7938C124.469 89.0565 123.763 86.9535 123.763 84.5762C123.763 81.5589 124.998 79.4559 126.321 78.1759C127.908 76.53 129.849 75.9814 132.053 75.9814C133.553 75.9814 134.876 76.2557 136.287 77.1701V80.1874Z" fill="#323232"/>
<path fill-rule="evenodd" clip-rule="evenodd" d="M147.664 86.4062L145.283 80.8287L142.813 86.4062H147.664ZM148.634 88.7835H141.843L140.079 92.8066H137.433L145.371 75.3427L152.956 92.8066H150.31L148.634 88.7835Z" fill="#323232"/>
<path fill-rule="evenodd" clip-rule="evenodd" d="M157.369 82.7476H164.16V76.3472H166.63V92.8053H164.16V85.1248H157.369V92.8053H154.9V76.3472H157.369V82.7476Z" fill="#323232"/>
<path fill-rule="evenodd" clip-rule="evenodd" d="M173.774 82.839L179.947 76.3472H183.122L175.978 83.7533L183.211 92.8053H179.947L174.303 85.4906L173.774 85.9477V92.8053H171.392V76.3472H173.774V82.839Z" fill="#323232"/>
<path fill-rule="evenodd" clip-rule="evenodd" d="M190.708 78.633V92.8053H188.239V78.633H184.623V76.3472H194.324V78.633H190.708Z" fill="#323232"/>
<path fill-rule="evenodd" clip-rule="evenodd" d="M215.228 76.3472V92.8053H212.759V78.633H205.879V92.8053H203.498V76.3472H215.228Z" fill="#323232"/>
<path fill-rule="evenodd" clip-rule="evenodd" d="M228.725 78.633H222.375V82.6561H228.461V84.942H222.375V90.428H228.725V92.8053H219.906V76.3472H228.725V78.633Z" fill="#323232"/>
<path fill-rule="evenodd" clip-rule="evenodd" d="M237.191 78.633V92.8053H234.81V78.633H231.106V76.3472H240.895V78.633H237.191Z" fill="#323232"/>
<path fill-rule="evenodd" clip-rule="evenodd" d="M252.715 78.633H246.365V82.6561H252.539V84.942H246.365V90.428H252.715V92.8053H243.984V76.3472H252.715V78.633Z" fill="#323232"/>
<path fill-rule="evenodd" clip-rule="evenodd" d="M259.243 83.7533H260.39C262.507 83.7533 263.477 82.6561 263.477 81.1932C263.477 80.2788 263.124 78.633 260.39 78.633H259.243V83.7533ZM260.39 76.3472C261.36 76.3472 262.683 76.3472 263.83 77.1701C265.153 78.0844 265.858 79.6388 265.858 81.1932C265.858 82.1989 265.594 83.6619 264.271 84.8505C263.036 85.9477 261.537 86.1306 260.39 86.1306H259.243V92.8053H256.862V76.3472H260.39Z" fill="#323232"/>
<path fill-rule="evenodd" clip-rule="evenodd" d="M271.68 90.428H273.18C273.797 90.428 276.355 90.428 276.355 87.9593C276.355 86.6792 275.826 85.3077 273.18 85.3077H271.68V90.428ZM269.211 76.3472H277.149V78.633H271.68V82.9304H273.268C274.415 82.9304 276.002 83.1133 277.237 84.3019C278.119 85.1248 278.736 86.4049 278.736 87.8679C278.736 89.4222 278.119 90.9766 276.796 91.891C275.649 92.7139 274.238 92.8053 273.268 92.8053H269.211V76.3472Z" fill="#323232"/>
<path fill-rule="evenodd" clip-rule="evenodd" d="M282.969 76.3472L287.114 84.8505L290.819 76.3472H293.288L286.144 92.8053H283.586L285.791 87.8679L280.059 76.3472H282.969Z" fill="#323232"/>
<path fill-rule="evenodd" clip-rule="evenodd" d="M297.789 83.7533H298.848C301.053 83.7533 302.023 82.6561 302.023 81.1932C302.023 80.2788 301.582 78.633 298.848 78.633H297.789V83.7533ZM298.848 76.3472C299.818 76.3472 301.229 76.3472 302.376 77.1701C303.698 78.0844 304.316 79.6388 304.316 81.1932C304.316 82.1989 304.139 83.6619 302.728 84.8505C301.494 85.9477 300.082 86.1306 298.848 86.1306H297.789V92.8053H295.32V76.3472H298.848Z" fill="#323232"/>
<path fill-rule="evenodd" clip-rule="evenodd" d="M307.756 76.3472H315.694V78.633H310.226V92.8053H307.756V76.3472Z" fill="#323232"/>
<path fill-rule="evenodd" clip-rule="evenodd" d="M327.69 78.633H321.34V82.6561H327.513V84.942H321.34V90.428H327.69V92.8053H318.958V76.3472H327.69V78.633Z" fill="#323232"/>
<path fill-rule="evenodd" clip-rule="evenodd" d="M81.8664 4.75525V95.0007H83.013V4.75525H81.8664ZM55.8463 79.7312V95.0007H56.9929V79.274C56.7283 79.3655 56.4637 79.4569 56.2873 79.6398L55.8463 79.7312ZM55.8463 4.75525V64.8274C56.2873 64.4617 56.6401 64.1874 56.9929 63.8217V4.75525H55.8463ZM26.0334 78.4511V95.0007H27.1801V78.9997C26.8273 78.8169 26.3862 78.634 26.0334 78.4511ZM26.0334 39.3173V61.1701C26.3862 61.7187 26.8273 62.2673 27.1801 62.7245V38.1287C26.8273 38.4944 26.3862 38.8602 26.0334 39.3173ZM26.0334 4.75525V23.9564C26.3862 23.865 26.8273 23.7735 27.1801 23.6821V4.75525H26.0334ZM0.0133057 4.75525V95.0007H1.15995V4.75525H0.0133057Z" fill="#323232"/>
<path fill-rule="evenodd" clip-rule="evenodd" d="M65.1073 29.5319C65.1073 29.989 65.813 33.2807 65.9894 36.8466C66.254 40.9611 66.254 45.99 65.4602 50.1045C64.6663 55.2248 62.7258 60.6195 59.2859 64.3683C55.0521 69.0314 48.4368 71.0429 42.439 71.0429C36.6175 71.0429 30.5315 69.1228 26.2977 64.734C22.5049 60.8023 21.0937 55.4991 21.0937 49.9217C21.0937 46.8129 21.7111 43.7956 22.6813 41.2354C24.6218 35.9323 29.2084 34.0121 34.5006 34.195C36.9703 34.2864 41.7333 34.7436 43.5856 36.7552C46.0553 39.4067 45.5261 44.8928 44.5559 47.8187C44.3795 48.2759 44.0266 49.6474 42.3508 49.8302C41.4687 49.9217 39.3518 49.7388 38.3816 49.4645C37.8524 49.1902 37.5878 48.4587 37.5878 47.8187C37.4996 46.4472 38.2934 45.0757 38.2934 43.7956C38.2934 43.247 37.9406 42.7898 37.3232 42.6069C36.0001 42.1498 32.5602 41.144 30.8843 43.4298C30.2669 44.3442 29.5612 47.4529 29.8258 49.6474C30.0904 52.3904 31.6781 54.4019 33.1776 55.4077C34.8535 56.5049 37.5878 57.2364 40.3221 57.4193C43.4092 57.5107 46.761 56.9621 48.7014 55.4077C52.406 52.4818 53.1116 49.0073 53.5526 44.2528C54.4347 36.6637 51.1711 29.6233 43.6738 26.7888C32.4719 22.4914 18.9768 25.143 14.302 37.8524C10.2446 48.8245 11.7441 62.5396 19.7706 71.1344C28.591 80.735 44.0266 82.3808 55.4931 77.7176C63.9607 74.3346 69.2529 68.117 72.2518 59.3394C74.0159 54.4934 74.6333 49.1902 74.7216 43.9784C74.8098 41.3269 74.6333 38.9496 74.5451 36.8466C74.3687 34.835 74.0159 32.4578 73.7513 30.9034C73.4867 29.989 72.7811 29.8062 72.4283 29.7147L67.136 28.5261C66.4304 28.4347 65.372 28.5261 65.1073 29.5319Z" fill="#FBC90B"/>
<path fill-rule="evenodd" clip-rule="evenodd" d="M199.442 4.5717V7.95476L203.587 3.38306V0L199.442 4.5717Z" fill="#323232"/>
<path fill-rule="evenodd" clip-rule="evenodd" d="M265.507 4.5717V7.95476L269.652 3.38306V0L265.507 4.5717Z" fill="#323232"/>
<path fill-rule="evenodd" clip-rule="evenodd" d="M195.648 85.2156V88.5987L199.793 84.1184V80.6439L195.648 85.2156Z" fill="#323232"/>
</g>
<defs>
<clipPath id="clip0_79_2654">
<rect width="329" height="95" fill="white"/>
</clipPath>
</defs>
</svg>
