<svg width="18" height="21" viewBox="0 0 18 21" fill="none" xmlns="http://www.w3.org/2000/svg">
<path d="M16.5 12C16.5 13.4834 16.0601 14.9334 15.236 16.1668C14.4119 17.4002 13.2406 18.3615 11.8701 18.9291C10.4997 19.4968 8.9917 19.6453 7.5368 19.3559C6.08197 19.0665 4.7456 18.3522 3.6967 17.3033C2.64781 16.2544 1.9335 14.9181 1.64411 13.4632C1.35472 12.0083 1.50325 10.5003 2.07091 9.1299C2.63856 7.75945 3.59986 6.58811 4.83323 5.764C6.0666 4.93989 7.5166 4.50002 9 4.50002H12.0857L9.6757 6.91062L10.3827 7.61772L14 4.00002L10.3823 0.382324L9.6753 1.08942L12.0857 3.50002H9C7.3189 3.50002 5.67548 3.99854 4.27766 4.93253C2.87984 5.86652 1.79037 7.19404 1.14703 8.74721C0.503682 10.3004 0.335352 12.0095 0.663332 13.6583C0.991302 15.3071 1.80085 16.8217 2.9896 18.0104C4.17834 19.1992 5.6929 20.0087 7.3417 20.3367C8.9906 20.6647 10.6996 20.4963 12.2528 19.853C13.806 19.2097 15.1335 18.1202 16.0675 16.7224C17.0015 15.3246 17.5 13.6812 17.5 12H16.5Z" fill="black"/>
</svg>
