<svg width="18" height="21" viewBox="0 0 18 21" fill="none" xmlns="http://www.w3.org/2000/svg">
<path d="M15.01 5.98932C14.2225 5.19769 13.2859 4.57008 12.2543 4.1428C11.2227 3.71551 10.1166 3.49704 9 3.50002H5.9143L8.3243 1.08942L7.6173 0.382324L4 4.00002L7.6177 7.61772L8.3247 6.91062L5.9143 4.50002H9C10.4834 4.50002 11.9334 4.93989 13.1668 5.764C14.4001 6.58811 15.3614 7.75945 15.9291 9.1299C16.4968 10.5003 16.6453 12.0083 16.3559 13.4632C16.0665 14.9181 15.3522 16.2544 14.3033 17.3033C13.2544 18.3522 11.918 19.0665 10.4632 19.3559C9.0083 19.6453 7.5003 19.4968 6.12987 18.9291C4.75943 18.3615 3.58809 17.4002 2.76398 16.1668C1.93987 14.9334 1.5 13.4834 1.5 12H0.5C0.49998 13.3979 0.84471 14.7742 1.50366 16.007C2.1626 17.2398 3.11542 18.2911 4.2777 19.0677C5.43999 19.8443 6.77586 20.3222 8.167 20.4592C9.5581 20.5962 10.9616 20.388 12.253 19.853C13.5445 19.3181 14.684 18.4728 15.5708 17.3922C16.4575 16.3116 17.0641 15.029 17.3368 13.658C17.6094 12.287 17.5397 10.8699 17.1339 9.53225C16.728 8.1946 15.9985 6.97769 15.01 5.98932Z" fill="black"/>
</svg>
