<svg width="20" height="20" viewBox="0 0 20 20" fill="none" xmlns="http://www.w3.org/2000/svg">
<path d="M0 6.00004V14H5.0859L11 19.9141V0.0859375L5.0859 6.00004H0ZM10 2.50004V17.5L5.793 13.2929L5.5 13H1V7.00004H5.5L10 2.50004ZM13.5731 8.2321C14.0413 8.7013 14.3043 9.3371 14.3043 9.9999C14.3043 10.6628 14.0413 11.2986 13.5731 11.7677L14.2802 12.4748C14.9356 11.8179 15.3037 10.9278 15.3037 9.9998C15.3037 9.0719 14.9356 8.1818 14.2802 7.52484L13.5731 8.2321ZM17.1086 4.69664L16.4016 5.40374C17.6187 6.62371 18.3023 8.2766 18.3023 9.9999C18.3023 11.7232 17.6187 13.3762 16.4016 14.5961L17.1086 15.3032C18.5131 13.8957 19.3019 11.9884 19.3019 10C19.3019 8.0116 18.5131 6.10432 17.1086 4.69674V4.69664Z" fill="black"/>
</svg>
